<mxfile host="app.diagrams.net" agent="Mozilla/5.0 (Macintosh; Intel Mac OS X 10_15_7) AppleWebKit/537.36 (KHTML, like Gecko) Chrome/136.0.0.0 Safari/537.36" version="27.0.1" pages="2">
  <diagram id="legal-docs-amendments" name="Legal Document Amendments">
    <mxGraphModel dx="1500" dy="800" grid="1" gridSize="10" guides="1" tooltips="1" connect="1" arrows="1" fold="1" page="1" pageScale="1" pageWidth="850" pageHeight="1100" math="0" shadow="0">
      <root>
        <mxCell id="0" />
        <mxCell id="1" parent="0" />
        <!-- Document Nodes -->
        <mxCell id="2" value="RP1_WHC_Complete_With_Changes.md" style="rounded=1;whiteSpace=wrap;html=1;fillColor=#dae8fc;strokeColor=#6c8ebf;" vertex="1" parent="1">
          <mxGeometry x="120" y="80" width="220" height="60" as="geometry" />
        </mxCell>
        <mxCell id="3" value="RP1_UCT_Complete_With_Changes.md" style="rounded=1;whiteSpace=wrap;html=1;fillColor=#e1d5e7;strokeColor=#9673a6;" vertex="1" parent="1">
          <mxGeometry x="420" y="80" width="220" height="60" as="geometry" />
        </mxCell>
        <mxCell id="4" value="RP2_WHC_Complete_With_Changes.md" style="rounded=1;whiteSpace=wrap;html=1;fillColor=#d5e8d4;strokeColor=#82b366;" vertex="1" parent="1">
          <mxGeometry x="270" y="220" width="220" height="60" as="geometry" />
        </mxCell>
        <!-- Update Types -->
        <mxCell id="5" value="Tracked Change: Rights/Duration (2.1)" style="ellipse;whiteSpace=wrap;html=1;fillColor=#fff2cc;strokeColor=#d6b656;" vertex="1" parent="1">
          <mxGeometry x="40" y="320" width="190" height="60" as="geometry" />
        </mxCell>
        <mxCell id="6" value="Tracked Change: Core Team (2.5)" style="ellipse;whiteSpace=wrap;html=1;fillColor=#fff2cc;strokeColor=#d6b656;" vertex="1" parent="1">
          <mxGeometry x="260" y="320" width="190" height="60" as="geometry" />
        </mxCell>
        <mxCell id="7" value="Tracked Change: Renumbering (12.6â†’12.7)" style="ellipse;whiteSpace=wrap;html=1;fillColor=#fff2cc;strokeColor=#d6b656;" vertex="1" parent="1">
          <mxGeometry x="480" y="320" width="190" height="60" as="geometry" />
        </mxCell>
        <mxCell id="8" value="Tracked Change: Amendment Effective Date" style="ellipse;whiteSpace=wrap;html=1;fillColor=#fff2cc;strokeColor=#d6b656;" vertex="1" parent="1">
          <mxGeometry x="700" y="320" width="210" height="60" as="geometry" />
        </mxCell>
        <!-- Rationales -->
        <mxCell id="9" value="Rationale: Legal clarity, future-proofing, compliance, and explicit post-project data use" style="rounded=1;whiteSpace=wrap;html=1;fillColor=#f8cecc;strokeColor=#b85450;" vertex="1" parent="1">
          <mxGeometry x="180" y="430" width="520" height="60" as="geometry" />
        </mxCell>
        <!-- Edges from Docs to Updates -->
        <mxCell id="10" style="edgeStyle=orthogonalEdgeStyle;rounded=0;orthogonalLoop=1;jettySize=auto;html=1;endArrow=block;endFill=1;strokeColor=#6c8ebf;" edge="1" parent="1" source="2" target="5">
          <mxGeometry relative="1" as="geometry" />
        </mxCell>
        <mxCell id="11" style="edgeStyle=orthogonalEdgeStyle;rounded=0;orthogonalLoop=1;jettySize=auto;html=1;endArrow=block;endFill=1;strokeColor=#6c8ebf;" edge="1" parent="1" source="2" target="6">
          <mxGeometry relative="1" as="geometry" />
        </mxCell>
        <mxCell id="12" style="edgeStyle=orthogonalEdgeStyle;rounded=0;orthogonalLoop=1;jettySize=auto;html=1;endArrow=block;endFill=1;strokeColor=#6c8ebf;" edge="1" parent="1" source="2" target="7">
          <mxGeometry relative="1" as="geometry" />
        </mxCell>
        <mxCell id="13" style="edgeStyle=orthogonalEdgeStyle;rounded=0;orthogonalLoop=1;jettySize=auto;html=1;endArrow=block;endFill=1;strokeColor=#6c8ebf;" edge="1" parent="1" source="2" target="8">
          <mxGeometry relative="1" as="geometry" />
        </mxCell>
        <mxCell id="14" style="edgeStyle=orthogonalEdgeStyle;rounded=0;orthogonalLoop=1;jettySize=auto;html=1;endArrow=block;endFill=1;strokeColor=#9673a6;" edge="1" parent="1" source="3" target="5">
          <mxGeometry relative="1" as="geometry" />
        </mxCell>
        <mxCell id="15" style="edgeStyle=orthogonalEdgeStyle;rounded=0;orthogonalLoop=1;jettySize=auto;html=1;endArrow=block;endFill=1;strokeColor=#9673a6;" edge="1" parent="1" source="3" target="6">
          <mxGeometry relative="1" as="geometry" />
        </mxCell>
        <mxCell id="16" style="edgeStyle=orthogonalEdgeStyle;rounded=0;orthogonalLoop=1;jettySize=auto;html=1;endArrow=block;endFill=1;strokeColor=#9673a6;" edge="1" parent="1" source="3" target="7">
          <mxGeometry relative="1" as="geometry" />
        </mxCell>
        <mxCell id="17" style="edgeStyle=orthogonalEdgeStyle;rounded=0;orthogonalLoop=1;jettySize=auto;html=1;endArrow=block;endFill=1;strokeColor=#9673a6;" edge="1" parent="1" source="3" target="8">
          <mxGeometry relative="1" as="geometry" />
        </mxCell>
        <mxCell id="18" style="edgeStyle=orthogonalEdgeStyle;rounded=0;orthogonalLoop=1;jettySize=auto;html=1;endArrow=block;endFill=1;strokeColor=#82b366;" edge="1" parent="1" source="4" target="5">
          <mxGeometry relative="1" as="geometry" />
        </mxCell>
        <mxCell id="19" style="edgeStyle=orthogonalEdgeStyle;rounded=0;orthogonalLoop=1;jettySize=auto;html=1;endArrow=block;endFill=1;strokeColor=#82b366;" edge="1" parent="1" source="4" target="6">
          <mxGeometry relative="1" as="geometry" />
        </mxCell>
        <mxCell id="20" style="edgeStyle=orthogonalEdgeStyle;rounded=0;orthogonalLoop=1;jettySize=auto;html=1;endArrow=block;endFill=1;strokeColor=#82b366;" edge="1" parent="1" source="4" target="7">
          <mxGeometry relative="1" as="geometry" />
        </mxCell>
        <mxCell id="21" style="edgeStyle=orthogonalEdgeStyle;rounded=0;orthogonalLoop=1;jettySize=auto;html=1;endArrow=block;endFill=1;strokeColor=#82b366;" edge="1" parent="1" source="4" target="8">
          <mxGeometry relative="1" as="geometry" />
        </mxCell>
        <!-- Edges from Updates to Rationale -->
        <mxCell id="22" style="edgeStyle=orthogonalEdgeStyle;rounded=0;orthogonalLoop=1;jettySize=auto;html=1;dashed=1;endArrow=block;endFill=1;strokeColor=#b85450;" edge="1" parent="1" source="5" target="9">
          <mxGeometry relative="1" as="geometry" />
        </mxCell>
        <mxCell id="23" style="edgeStyle=orthogonalEdgeStyle;rounded=0;orthogonalLoop=1;jettySize=auto;html=1;dashed=1;endArrow=block;endFill=1;strokeColor=#b85450;" edge="1" parent="1" source="6" target="9">
          <mxGeometry relative="1" as="geometry" />
        </mxCell>
        <mxCell id="24" style="edgeStyle=orthogonalEdgeStyle;rounded=0;orthogonalLoop=1;jettySize=auto;html=1;dashed=1;endArrow=block;endFill=1;strokeColor=#b85450;" edge="1" parent="1" source="7" target="9">
          <mxGeometry relative="1" as="geometry" />
        </mxCell>
        <mxCell id="25" style="edgeStyle=orthogonalEdgeStyle;rounded=0;orthogonalLoop=1;jettySize=auto;html=1;dashed=1;endArrow=block;endFill=1;strokeColor=#b85450;" edge="1" parent="1" source="8" target="9">
          <mxGeometry relative="1" as="geometry" />
        </mxCell>
      </root>
    </mxGraphModel>
  </diagram>
  <diagram id="qc0jCQibeOfaVvD97Ycb" name="Page-2">
    <mxGraphModel dx="1218" dy="815" grid="1" gridSize="10" guides="1" tooltips="1" connect="1" arrows="1" fold="1" page="1" pageScale="1" pageWidth="1169" pageHeight="827" math="0" shadow="0">
      <root>
        <mxCell id="0" />
        <mxCell id="1" parent="0" />
        <mxCell id="jbARCLfDPxoW56LHO7_I-1" value="" style="rounded=0;whiteSpace=wrap;html=1;fillColor=#f5f5f5;strokeColor=#666666;fontColor=#333333;" vertex="1" parent="1">
          <mxGeometry x="60" y="10" width="880" height="600" as="geometry" />
        </mxCell>
        <mxCell id="jbARCLfDPxoW56LHO7_I-2" value="&lt;b&gt;RP1_Old_WHC Document&lt;/b&gt;" style="rounded=0;whiteSpace=wrap;html=1;fillColor=#e1d5e7;strokeColor=#9673a6;" vertex="1" parent="1">
          <mxGeometry x="730" y="60" width="150" height="40" as="geometry" />
        </mxCell>
        <mxCell id="jbARCLfDPxoW56LHO7_I-3" value="&lt;b&gt;Amendment Provisions&lt;/b&gt;" style="rounded=0;whiteSpace=wrap;html=1;fillColor=#dae8fc;strokeColor=#6c8ebf;" vertex="1" parent="1">
          <mxGeometry x="80" y="60" width="200" height="40" as="geometry" />
        </mxCell>
        <mxCell id="jbARCLfDPxoW56LHO7_I-4" value="&lt;b&gt;RP1_UCT Document&lt;/b&gt;" style="rounded=0;whiteSpace=wrap;html=1;fillColor=#d5e8d4;strokeColor=#82b366;" vertex="1" parent="1">
          <mxGeometry x="280" y="60" width="150" height="40" as="geometry" />
        </mxCell>
        <mxCell id="jbARCLfDPxoW56LHO7_I-5" value="&lt;b&gt;RP1_WHC Document&lt;/b&gt;" style="rounded=0;whiteSpace=wrap;html=1;fillColor=#ffe6cc;strokeColor=#d79b00;" vertex="1" parent="1">
          <mxGeometry x="430" y="60" width="150" height="40" as="geometry" />
        </mxCell>
        <mxCell id="jbARCLfDPxoW56LHO7_I-6" value="&lt;b&gt;RP2_WHC Document&lt;/b&gt;" style="rounded=0;whiteSpace=wrap;html=1;fillColor=#fff2cc;strokeColor=#d6b656;" vertex="1" parent="1">
          <mxGeometry x="580" y="60" width="150" height="40" as="geometry" />
        </mxCell>
        <mxCell id="jbARCLfDPxoW56LHO7_I-7" value="&lt;b&gt;New Definitions&lt;/b&gt;" style="rounded=1;whiteSpace=wrap;html=1;fillColor=#dae8fc;strokeColor=#6c8ebf;" vertex="1" parent="1">
          <mxGeometry x="80" y="120" width="200" height="50" as="geometry" />
        </mxCell>
        <mxCell id="jbARCLfDPxoW56LHO7_I-8" value="Definitions Section 1.x&lt;br&gt;(Azure, Cloud Migration, DAC, etc.)" style="rounded=1;whiteSpace=wrap;html=1;fillColor=#d5e8d4;strokeColor=#82b366;" vertex="1" parent="1">
          <mxGeometry x="280" y="120" width="150" height="50" as="geometry" />
        </mxCell>
        <mxCell id="jbARCLfDPxoW56LHO7_I-9" value="Definitions Section 1.x&lt;br&gt;(Azure, Cloud Migration, DAC, etc.)" style="rounded=1;whiteSpace=wrap;html=1;fillColor=#ffe6cc;strokeColor=#d79b00;" vertex="1" parent="1">
          <mxGeometry x="430" y="120" width="150" height="50" as="geometry" />
        </mxCell>
        <mxCell id="jbARCLfDPxoW56LHO7_I-10" value="Definitions Section 1.x&lt;br&gt;(Azure, Cloud Migration, DAC, etc.)" style="rounded=1;whiteSpace=wrap;html=1;fillColor=#fff2cc;strokeColor=#d6b656;" vertex="1" parent="1">
          <mxGeometry x="580" y="120" width="150" height="50" as="geometry" />
        </mxCell>
        <mxCell id="jbARCLfDPxoW56LHO7_I-11" value="Definitions Section 1.x&lt;br&gt;(Azure, Cloud Migration, DAC, etc.)" style="rounded=1;whiteSpace=wrap;html=1;fillColor=#e1d5e7;strokeColor=#9673a6;" vertex="1" parent="1">
          <mxGeometry x="730" y="120" width="150" height="50" as="geometry" />
        </mxCell>
        <mxCell id="jbARCLfDPxoW56LHO7_I-12" value="&lt;b&gt;Agreement Term Change&lt;/b&gt;" style="rounded=1;whiteSpace=wrap;html=1;fillColor=#dae8fc;strokeColor=#6c8ebf;" vertex="1" parent="1">
          <mxGeometry x="80" y="190" width="200" height="50" as="geometry" />
        </mxCell>
        <mxCell id="jbARCLfDPxoW56LHO7_I-13" value="Section 2.1&lt;br&gt;Extended for Post-Project Data Use" style="rounded=1;whiteSpace=wrap;html=1;fillColor=#d5e8d4;strokeColor=#82b366;" vertex="1" parent="1">
          <mxGeometry x="280" y="190" width="150" height="50" as="geometry" />
        </mxCell>
        <mxCell id="jbARCLfDPxoW56LHO7_I-14" value="Section 2.1&lt;br&gt;Extended for Post-Project Data Use" style="rounded=1;whiteSpace=wrap;html=1;fillColor=#ffe6cc;strokeColor=#d79b00;" vertex="1" parent="1">
          <mxGeometry x="430" y="190" width="150" height="50" as="geometry" />
        </mxCell>
        <mxCell id="jbARCLfDPxoW56LHO7_I-15" value="Section 2.1&lt;br&gt;Extended for Post-Project Data Use" style="rounded=1;whiteSpace=wrap;html=1;fillColor=#fff2cc;strokeColor=#d6b656;" vertex="1" parent="1">
          <mxGeometry x="580" y="190" width="150" height="50" as="geometry" />
        </mxCell>
        <mxCell id="jbARCLfDPxoW56LHO7_I-16" value="Section 2.1&lt;br&gt;Extended for Post-Project Data Use" style="rounded=1;whiteSpace=wrap;html=1;fillColor=#e1d5e7;strokeColor=#9673a6;" vertex="1" parent="1">
          <mxGeometry x="730" y="190" width="150" height="50" as="geometry" />
        </mxCell>
        <mxCell id="jbARCLfDPxoW56LHO7_I-17" value="&lt;b&gt;Cloud Migration Authorization&lt;/b&gt;" style="rounded=1;whiteSpace=wrap;html=1;fillColor=#dae8fc;strokeColor=#6c8ebf;" vertex="1" parent="1">
          <mxGeometry x="80" y="260" width="200" height="50" as="geometry" />
        </mxCell>
        <mxCell id="jbARCLfDPxoW56LHO7_I-18" value="Section 2.X&lt;br&gt;Azure Migration &amp;amp; Security" style="rounded=1;whiteSpace=wrap;html=1;fillColor=#d5e8d4;strokeColor=#82b366;" vertex="1" parent="1">
          <mxGeometry x="280" y="260" width="150" height="50" as="geometry" />
        </mxCell>
        <mxCell id="jbARCLfDPxoW56LHO7_I-19" value="Section 2.X&lt;br&gt;Azure Migration &amp;amp; Security" style="rounded=1;whiteSpace=wrap;html=1;fillColor=#ffe6cc;strokeColor=#d79b00;" vertex="1" parent="1">
          <mxGeometry x="430" y="260" width="150" height="50" as="geometry" />
        </mxCell>
        <mxCell id="jbARCLfDPxoW56LHO7_I-20" value="Section 2.19&lt;br&gt;Azure Migration &amp;amp; Security" style="rounded=1;whiteSpace=wrap;html=1;fillColor=#fff2cc;strokeColor=#d6b656;" vertex="1" parent="1">
          <mxGeometry x="580" y="260" width="150" height="50" as="geometry" />
        </mxCell>
        <mxCell id="jbARCLfDPxoW56LHO7_I-21" value="Section 2.19&lt;br&gt;Azure Migration &amp;amp; Security" style="rounded=1;whiteSpace=wrap;html=1;fillColor=#e1d5e7;strokeColor=#9673a6;" vertex="1" parent="1">
          <mxGeometry x="730" y="260" width="150" height="50" as="geometry" />
        </mxCell>
        <mxCell id="jbARCLfDPxoW56LHO7_I-22" value="&lt;b&gt;External Researcher Access&lt;/b&gt;" style="rounded=1;whiteSpace=wrap;html=1;fillColor=#dae8fc;strokeColor=#6c8ebf;" vertex="1" parent="1">
          <mxGeometry x="80" y="330" width="200" height="50" as="geometry" />
        </mxCell>
        <mxCell id="jbARCLfDPxoW56LHO7_I-23" value="Section 2.Y&lt;br&gt;External Access Rules" style="rounded=1;whiteSpace=wrap;html=1;fillColor=#d5e8d4;strokeColor=#82b366;" vertex="1" parent="1">
          <mxGeometry x="280" y="330" width="150" height="50" as="geometry" />
        </mxCell>
        <mxCell id="jbARCLfDPxoW56LHO7_I-24" value="Section 2.Y&lt;br&gt;External Access Rules" style="rounded=1;whiteSpace=wrap;html=1;fillColor=#ffe6cc;strokeColor=#d79b00;" vertex="1" parent="1">
          <mxGeometry x="430" y="330" width="150" height="50" as="geometry" />
        </mxCell>
        <mxCell id="jbARCLfDPxoW56LHO7_I-25" value="Section 2.20&lt;br&gt;External Access Rules" style="rounded=1;whiteSpace=wrap;html=1;fillColor=#fff2cc;strokeColor=#d6b656;" vertex="1" parent="1">
          <mxGeometry x="580" y="330" width="150" height="50" as="geometry" />
        </mxCell>
        <mxCell id="jbARCLfDPxoW56LHO7_I-26" value="Section 2.20&lt;br&gt;External Access Rules" style="rounded=1;whiteSpace=wrap;html=1;fillColor=#e1d5e7;strokeColor=#9673a6;" vertex="1" parent="1">
          <mxGeometry x="730" y="330" width="150" height="50" as="geometry" />
        </mxCell>
        <mxCell id="jbARCLfDPxoW56LHO7_I-27" value="&lt;b&gt;Post-Project Data Use&lt;/b&gt;" style="rounded=1;whiteSpace=wrap;html=1;fillColor=#dae8fc;strokeColor=#6c8ebf;" vertex="1" parent="1">
          <mxGeometry x="80" y="400" width="200" height="50" as="geometry" />
        </mxCell>
        <mxCell id="jbARCLfDPxoW56LHO7_I-28" value="Section 2.Z&lt;br&gt;Data Retention Periods" style="rounded=1;whiteSpace=wrap;html=1;fillColor=#d5e8d4;strokeColor=#82b366;" vertex="1" parent="1">
          <mxGeometry x="280" y="400" width="150" height="50" as="geometry" />
        </mxCell>
        <mxCell id="jbARCLfDPxoW56LHO7_I-29" value="Section 2.Z&lt;br&gt;Data Retention Periods" style="rounded=1;whiteSpace=wrap;html=1;fillColor=#ffe6cc;strokeColor=#d79b00;" vertex="1" parent="1">
          <mxGeometry x="430" y="400" width="150" height="50" as="geometry" />
        </mxCell>
        <mxCell id="jbARCLfDPxoW56LHO7_I-30" value="Section 2.21&lt;br&gt;Data Retention Periods" style="rounded=1;whiteSpace=wrap;html=1;fillColor=#fff2cc;strokeColor=#d6b656;" vertex="1" parent="1">
          <mxGeometry x="580" y="400" width="150" height="50" as="geometry" />
        </mxCell>
        <mxCell id="jbARCLfDPxoW56LHO7_I-31" value="Section 2.21&lt;br&gt;Data Retention Periods" style="rounded=1;whiteSpace=wrap;html=1;fillColor=#e1d5e7;strokeColor=#9673a6;" vertex="1" parent="1">
          <mxGeometry x="730" y="400" width="150" height="50" as="geometry" />
        </mxCell>
        <mxCell id="jbARCLfDPxoW56LHO7_I-32" value="&lt;b&gt;Security Provisions&lt;/b&gt;" style="rounded=1;whiteSpace=wrap;html=1;fillColor=#dae8fc;strokeColor=#6c8ebf;" vertex="1" parent="1">
          <mxGeometry x="80" y="470" width="200" height="50" as="geometry" />
        </mxCell>
        <mxCell id="jbARCLfDPxoW56LHO7_I-33" value="Section 6&lt;br&gt;Enhanced Cloud Safeguards" style="rounded=1;whiteSpace=wrap;html=1;fillColor=#d5e8d4;strokeColor=#82b366;" vertex="1" parent="1">
          <mxGeometry x="280" y="470" width="150" height="50" as="geometry" />
        </mxCell>
        <mxCell id="jbARCLfDPxoW56LHO7_I-34" value="Section 6&lt;br&gt;Enhanced Cloud Safeguards" style="rounded=1;whiteSpace=wrap;html=1;fillColor=#ffe6cc;strokeColor=#d79b00;" vertex="1" parent="1">
          <mxGeometry x="430" y="470" width="150" height="50" as="geometry" />
        </mxCell>
        <mxCell id="jbARCLfDPxoW56LHO7_I-35" value="Section 6&lt;br&gt;Enhanced Cloud Safeguards" style="rounded=1;whiteSpace=wrap;html=1;fillColor=#fff2cc;strokeColor=#d6b656;" vertex="1" parent="1">
          <mxGeometry x="580" y="470" width="150" height="50" as="geometry" />
        </mxCell>
        <mxCell id="jbARCLfDPxoW56LHO7_I-36" value="Section 6&lt;br&gt;Enhanced Cloud Safeguards" style="rounded=1;whiteSpace=wrap;html=1;fillColor=#e1d5e7;strokeColor=#9673a6;" vertex="1" parent="1">
          <mxGeometry x="730" y="470" width="150" height="50" as="geometry" />
        </mxCell>
        <mxCell id="jbARCLfDPxoW56LHO7_I-37" value="&lt;b&gt;Security Breach Provisions&lt;/b&gt;" style="rounded=1;whiteSpace=wrap;html=1;fillColor=#dae8fc;strokeColor=#6c8ebf;" vertex="1" parent="1">
          <mxGeometry x="80" y="540" width="200" height="50" as="geometry" />
        </mxCell>
        <mxCell id="jbARCLfDPxoW56LHO7_I-38" value="Section 7&lt;br&gt;Extended Notifications" style="rounded=1;whiteSpace=wrap;html=1;fillColor=#d5e8d4;strokeColor=#82b366;" vertex="1" parent="1">
          <mxGeometry x="280" y="540" width="150" height="50" as="geometry" />
        </mxCell>
        <mxCell id="jbARCLfDPxoW56LHO7_I-39" value="Section 7&lt;br&gt;Extended Notifications" style="rounded=1;whiteSpace=wrap;html=1;fillColor=#ffe6cc;strokeColor=#d79b00;" vertex="1" parent="1">
          <mxGeometry x="430" y="540" width="150" height="50" as="geometry" />
        </mxCell>
        <mxCell id="jbARCLfDPxoW56LHO7_I-40" value="Section 7&lt;br&gt;Extended Notifications" style="rounded=1;whiteSpace=wrap;html=1;fillColor=#fff2cc;strokeColor=#d6b656;" vertex="1" parent="1">
          <mxGeometry x="580" y="540" width="150" height="50" as="geometry" />
        </mxCell>
        <mxCell id="jbARCLfDPxoW56LHO7_I-41" value="Section 7&lt;br&gt;Extended Notifications with Section 12.6 Survival Clause" style="rounded=1;whiteSpace=wrap;html=1;fillColor=#e1d5e7;strokeColor=#9673a6;" vertex="1" parent="1">
          <mxGeometry x="730" y="540" width="150" height="50" as="geometry" />
        </mxCell>
        <mxCell id="jbARCLfDPxoW56LHO7_I-42" value="&lt;b&gt;LEGAL DOCUMENT AMENDMENTS&lt;/b&gt;" style="text;html=1;strokeColor=none;fillColor=none;align=center;verticalAlign=middle;whiteSpace=wrap;rounded=0;fontSize=16;" vertex="1" parent="1">
          <mxGeometry x="300" y="20" width="230" height="30" as="geometry" />
        </mxCell>
      </root>
    </mxGraphModel>
  </diagram>
</mxfile>
